<svg width="32" height="32" viewBox="0 0 32 32" fill="none" xmlns="http://www.w3.org/2000/svg">
<path d="M17.6521 22.27H13.7621C12.9721 22.27 12.3221 22.91 12.3321 23.7V27.59C12.3321 28.38 12.9721 29.02 13.7621 29.02H14.0101C14.1787 29.3206 14.4244 29.5708 14.7217 29.745C15.0191 29.9191 15.3575 30.0109 15.7021 30.0109C16.0468 30.0109 16.3852 29.9191 16.6826 29.745C16.9799 29.5708 17.2255 29.3206 17.3941 29.02H17.6521C18.4421 29.02 19.0821 28.38 19.0821 27.59V23.7C19.0821 22.91 18.4421 22.27 17.6521 22.27Z" fill="#9B9B9B"/>
<path d="M18.1611 23.13C18.4011 23.13 18.5911 22.95 18.6111 22.72C18.6811 21.86 19.0511 19.77 21.0711 17.53C22.0352 16.7713 22.827 15.8164 23.3942 14.7285C23.9614 13.6407 24.291 12.4448 24.3611 11.22C24.3811 10.98 24.3911 10.82 24.3911 10.72V10.62C24.3311 5.84 20.4611 2 15.6911 2C13.4019 1.99988 11.2051 2.90306 9.57796 4.51334C7.95083 6.12362 7.02482 8.3109 7.00111 10.6C7.00111 10.6 6.99111 10.84 7.03111 11.24C7.19111 13.78 8.43111 16.03 10.3211 17.52C12.3411 19.77 12.7411 21.86 12.8111 22.72C12.8311 22.95 13.0211 23.13 13.2611 23.13H18.1611Z" fill="#FCD53F"/>
<path d="M15.7008 10.7C17.3208 10.7 18.6408 12.01 18.6608 13.63V13.71C18.6608 13.74 18.6608 13.78 18.6508 13.84C18.6008 14.68 18.1908 15.47 17.5308 15.99L17.4608 16.04L17.4008 16.1C16.3008 17.32 16.0708 20.42 16.0308 22.12H15.3808C15.3308 20.42 15.0908 17.32 13.9908 16.1L13.9308 16.04L13.8608 15.99C13.5305 15.7287 13.2597 15.4 13.0666 15.0258C12.8734 14.6516 12.7623 14.2405 12.7408 13.82C12.7408 13.78 12.7308 13.75 12.7308 13.73V13.64C12.7608 12.02 14.0908 10.7 15.7008 10.7ZM15.7008 9.69995C14.8779 9.70025 14.0755 9.95689 13.4052 10.4342C12.7349 10.9115 12.2299 11.5858 11.9605 12.3633C11.691 13.1408 11.6705 13.983 11.9018 14.7727C12.133 15.5625 12.6045 16.2605 13.2508 16.77C14.4508 18.11 14.3908 23.13 14.3908 23.13H17.0308C17.0308 23.13 16.9508 18.11 18.1608 16.78C19.0208 16.1 19.5908 15.07 19.6608 13.9C19.6708 13.79 19.6708 13.72 19.6708 13.67V13.63C19.6602 12.584 19.2373 11.5845 18.4939 10.8486C17.7505 10.1127 16.7468 9.6999 15.7008 9.69995Z" fill="#FFB02E"/>
<path d="M19.1663 25.053C19.231 25.0417 19.2929 25.0178 19.3484 24.9826C19.4039 24.9474 19.4519 24.9016 19.4897 24.8478C19.5275 24.794 19.5543 24.7334 19.5687 24.6692C19.583 24.6051 19.5846 24.5388 19.5733 24.474C19.562 24.4093 19.5381 24.3474 19.5029 24.2919C19.4676 24.2364 19.4218 24.1884 19.3681 24.1506C19.3143 24.1128 19.2536 24.086 19.1895 24.0716C19.1254 24.0573 19.059 24.0557 18.9943 24.067L12.2543 25.247C12.1895 25.2583 12.1277 25.2822 12.0722 25.3175C12.0167 25.3527 11.9687 25.3985 11.9309 25.4522C11.8931 25.506 11.8662 25.5667 11.8519 25.6308C11.8376 25.6949 11.836 25.7613 11.8473 25.826C11.8586 25.8908 11.8825 25.9526 11.9177 26.0081C11.9529 26.0636 11.9987 26.1116 12.0525 26.1494C12.1063 26.1872 12.1669 26.2141 12.2311 26.2284C12.2952 26.2427 12.3615 26.2443 12.4263 26.233L19.1663 25.053ZM19.1163 27.203C19.2454 27.1786 19.3598 27.1044 19.4346 26.9963C19.5094 26.8883 19.5386 26.7551 19.516 26.6257C19.4934 26.4962 19.4208 26.3809 19.3138 26.3046C19.2068 26.2283 19.074 26.1972 18.9443 26.218L12.2943 27.388C12.2274 27.3969 12.163 27.4191 12.105 27.4535C12.0469 27.4879 11.9965 27.5337 11.9566 27.5881C11.9167 27.6425 11.8882 27.7044 11.8729 27.77C11.8576 27.8357 11.8557 27.9038 11.8674 27.9703C11.879 28.0367 11.904 28.1001 11.9409 28.1566C11.9777 28.2131 12.0256 28.2616 12.0816 28.2992C12.1377 28.3367 12.2007 28.3625 12.267 28.375C12.3333 28.3875 12.4014 28.3865 12.4673 28.372L19.1163 27.203Z" fill="#D3D3D3"/>
<path d="M13.7929 5.43997C12.6829 7.35997 13.2429 9.75997 15.0429 10.79C16.8429 11.82 19.1929 11.11 20.3029 9.18997C21.4129 7.26997 20.8529 4.86997 19.0529 3.83997C17.2529 2.80997 14.9029 3.51997 13.7929 5.43997Z" fill="#FFF478"/>
</svg>
